<svg width="15" height="16" viewBox="0 0 15 16" fill="none" xmlns="http://www.w3.org/2000/svg">
<path d="M5.94852 9.50666H9.03717C10.7102 9.54666 12.1258 10.0933 13.2555 11.1333C14.3708 12.2 14.9571 13.5067 15 15.0667C15 15.3333 14.8999 15.56 14.6997 15.72C14.5281 15.9067 14.285 16 13.999 16H1.00096C0.714973 16 0.471887 15.9067 0.300295 15.72C0.100105 15.56 0 15.3333 0 15.0667C0.042898 13.5067 0.629172 12.1867 1.74452 11.1333C2.88847 10.0933 4.28981 9.54666 5.96283 9.50666H5.94852ZM9.03717 10.5067H5.94852C4.59009 10.5467 3.44614 10.9867 2.53099 11.8133C1.58723 12.6667 1.10106 13.7333 1.05816 15H13.9276C13.8847 13.7333 13.3842 12.6667 12.4547 11.8133C11.5396 10.9867 10.3956 10.5467 9.03717 10.5067ZM7.49285 8C6.70639 8 5.99143 7.82666 5.34796 7.46666C4.70449 7.10666 4.17541 6.62667 3.77503 6C3.38895 5.37333 3.20306 4.70667 3.20306 4C3.20306 3.29333 3.38895 2.62667 3.77503 2C4.17541 1.37333 4.70449 0.879999 5.34796 0.533333C5.99143 0.186666 6.70639 0 7.49285 0C8.27932 0 8.99428 0.173333 9.63775 0.533333C10.2812 0.893333 10.8103 1.37333 11.2107 2C11.5968 2.62667 11.7827 3.29333 11.7827 4C11.7827 4.70667 11.5968 5.37333 11.2107 6C10.8103 6.62667 10.2812 7.12 9.63775 7.46666C8.99428 7.81333 8.27932 8 7.49285 8ZM4.27551 4C4.27551 4.54667 4.41849 5.04 4.70448 5.49333C4.99047 5.94667 5.39085 6.32 5.87702 6.58667C6.3918 6.85333 6.92088 6.98666 7.47855 6.98666C8.03623 6.98666 8.5796 6.85333 9.08008 6.58667C9.56626 6.32 9.96664 5.94667 10.2526 5.49333C10.5386 5.04 10.6816 4.53333 10.6816 4C10.6816 3.46667 10.5386 2.96 10.2526 2.50667C9.96664 2.05333 9.56626 1.68 9.08008 1.41333C8.5653 1.14667 8.03623 1.01333 7.47855 1.01333C6.92088 1.01333 6.3775 1.14667 5.87702 1.41333C5.39085 1.68 4.99047 2.05333 4.70448 2.50667C4.41849 2.96 4.27551 3.46667 4.27551 4Z" fill="#5E6A8A"/>
</svg>
