<svg width="61" height="48" viewBox="0 0 61 48" fill="none" xmlns="http://www.w3.org/2000/svg">
<path d="M1.70494 17.1441C1.24301 17.1441 0.848272 16.9742 0.512323 16.6343C0.176373 16.2945 0.00839873 15.8952 0.00839873 15.428V5.14832C0.00839873 3.72106 0.503924 2.50619 1.49497 1.50371C2.48602 0.501236 3.68704 0 5.09803 0H15.2605C15.7224 0 16.1172 0.16991 16.4531 0.509733C16.7891 0.849556 16.957 1.24885 16.957 1.7161C16.957 2.18336 16.7891 2.58266 16.4531 2.92248C16.1172 3.2623 15.7224 3.43221 15.2605 3.43221H5.08963C4.6277 3.43221 4.23296 3.60212 3.89701 3.94195C3.56106 4.28177 3.39309 4.68106 3.39309 5.14832V15.428C3.39309 15.8952 3.22511 16.2945 2.88916 16.6343C2.55321 16.9742 2.15847 17.1441 1.69654 17.1441H1.70494ZM15.2605 44.5678C15.7224 44.5678 16.1172 44.7377 16.4531 45.0775C16.7891 45.4173 16.957 45.8166 16.957 46.2839C16.957 46.7511 16.7891 47.1504 16.4531 47.4903C16.1172 47.8301 15.7224 48 15.2605 48H5.08963C3.67865 48 2.47763 47.4988 1.48658 46.4963C0.495525 45.4938 0 44.2789 0 42.8517V32.572C0 32.1048 0.167975 31.7055 0.503924 31.3657C0.839873 31.0258 1.23461 30.8559 1.69654 30.8559C2.15847 30.8559 2.55321 31.0258 2.88916 31.3657C3.22511 31.7055 3.39309 32.1048 3.39309 32.572V42.8517C3.39309 43.3189 3.56106 43.7182 3.89701 44.0581C4.23296 44.3979 4.6277 44.5678 5.08963 44.5678H15.2521H15.2605ZM44.908 30.9664C44.908 31.68 44.7065 32.3342 44.2949 32.9204C43.8918 33.5065 43.3543 33.9313 42.6824 34.1777L31.6716 38.1961C31.4952 38.2641 31.3105 38.332 31.1173 38.383C30.9241 38.434 30.7226 38.4595 30.5042 38.4595C30.2858 38.4595 30.0927 38.434 29.8995 38.383C29.7063 38.332 29.5215 38.2641 29.3452 38.1961L18.3344 34.1777C17.6625 33.9313 17.125 33.5065 16.7219 32.9204C16.3187 32.3342 16.1088 31.68 16.1088 30.9664V17.0421C16.1088 16.3285 16.3103 15.6743 16.7219 15.0881C17.125 14.5019 17.6625 14.0772 18.3344 13.8308L29.3452 9.76141C29.5215 9.69345 29.7063 9.63398 29.8995 9.6C30.0927 9.56602 30.2942 9.54902 30.5042 9.54902C30.7142 9.54902 30.9157 9.56602 31.1173 9.6C31.3105 9.63398 31.4952 9.69345 31.6716 9.76141L42.6824 13.8308C43.3543 14.0772 43.8918 14.5019 44.2949 15.0881C44.6981 15.6743 44.908 16.3285 44.908 17.0421V30.9664ZM28.8077 22.7681L19.4851 19.0726V30.9664L28.8077 34.3986V22.7766V22.7681ZM30.5042 19.7182L39.3481 16.235L30.5546 12.9642H30.5042L21.6603 16.235L30.5042 19.7182ZM41.5149 19.0726L32.1923 22.7681V34.3901L41.5149 30.9579V19.0641V19.0726ZM59.5134 1.50371C60.5045 2.50619 61 3.72106 61 5.14832V15.428C61 15.8952 60.832 16.2945 60.4961 16.6343C60.1601 16.9742 59.7654 17.1441 59.3035 17.1441C58.8415 17.1441 58.4468 16.9742 58.1108 16.6343C57.7749 16.2945 57.6069 15.8952 57.6069 15.428V5.14832C57.6069 4.68106 57.4389 4.28177 57.103 3.94195C56.767 3.60212 56.3723 3.43221 55.9104 3.43221H45.7479C45.286 3.43221 44.8912 3.2623 44.5553 2.92248C44.2193 2.58266 44.0513 2.18336 44.0513 1.7161C44.0513 1.24885 44.2193 0.849556 44.5553 0.509733C44.8912 0.16991 45.286 0 45.7479 0H55.9104C57.3214 0 58.5224 0.501236 59.5134 1.50371ZM60.4961 31.3657C60.832 31.7055 61 32.1048 61 32.572V42.8517C61 44.2789 60.5045 45.4938 59.5134 46.4963C58.5224 47.4988 57.3214 48 55.9104 48H45.7479C45.286 48 44.8912 47.8301 44.5553 47.4903C44.2193 47.1504 44.0513 46.7511 44.0513 46.2839C44.0513 45.8166 44.2193 45.4173 44.5553 45.0775C44.8912 44.7377 45.286 44.5678 45.7479 44.5678H55.9104C56.3723 44.5678 56.767 44.3979 57.103 44.0581C57.4389 43.7182 57.6069 43.3189 57.6069 42.8517V32.572C57.6069 32.1048 57.7749 31.7055 58.1108 31.3657C58.4468 31.0258 58.8415 30.8559 59.3035 30.8559C59.7654 30.8559 60.1601 31.0258 60.4961 31.3657Z" fill="white"/>
</svg>
