<svg width="19" height="20" viewBox="0 0 19 20" fill="none" xmlns="http://www.w3.org/2000/svg">
<path d="M1.26667 5.25C2.10583 3.80917 3.2775 2.65333 4.75 1.76667C6.25417 0.9275 7.8375 0.5 9.5 0.5C11.1625 0.5 12.7458 0.9275 14.25 1.76667C15.7383 2.65333 16.8942 3.825 17.7333 5.25C18.5567 6.69083 18.9683 8.27417 19 10C18.9683 11.7258 18.5567 13.3092 17.7333 14.75C16.8942 16.1908 15.7225 17.3467 14.25 18.2333C12.7458 19.0725 11.1625 19.5 9.5 19.5C7.8375 19.5 6.25417 19.0725 4.75 18.2333C3.26167 17.3467 2.10583 16.175 1.26667 14.75C0.443334 13.3092 0.0316667 11.7258 0 10C0.0316667 8.27417 0.443334 6.69083 1.26667 5.25ZM16.7042 5.85167C15.96 4.585 14.9467 3.57167 13.6642 2.81167C12.35 2.0675 10.9725 1.70333 9.51583 1.70333C8.05917 1.70333 6.66583 2.0675 5.3675 2.81167C4.085 3.57167 3.07167 4.585 2.3275 5.85167C1.615 7.11833 1.235 8.49583 1.21917 10C1.25083 11.5042 1.615 12.8975 2.3275 14.1483C3.07167 15.415 4.085 16.4283 5.3675 17.1883C6.68167 17.9325 8.05917 18.2967 9.51583 18.2967C10.9725 18.2967 12.3658 17.9325 13.6642 17.1883C14.9467 16.4283 15.96 15.415 16.7042 14.1483C17.4167 12.8817 17.7967 11.5042 17.8125 10C17.7808 8.49583 17.4167 7.1025 16.7042 5.85167ZM10.1017 9.82583L12.3658 13.2458C12.54 13.5625 12.4925 13.8475 12.2233 14.0692C11.9067 14.2433 11.6217 14.1958 11.4 13.9267L9.025 10.3642C8.94584 10.2692 8.91417 10.1583 8.91417 10.0317V4.68C8.94583 4.31583 9.13583 4.11 9.51583 4.07833C9.88 4.11 10.0858 4.3 10.1175 4.68V9.84167L10.1017 9.82583Z" fill="#5E6A8A"/>
</svg>
