<svg width="22" height="16" viewBox="0 0 22 16" fill="none" xmlns="http://www.w3.org/2000/svg">
<path d="M11 4.6019C11.484 3.21524 12.1733 2.1181 13.0973 1.28C14.0213 0.441905 15.0627 0.0152381 16.2213 0C17.8493 0.0457143 19.2133 0.838095 20.3133 2.3619C21.384 3.85524 21.956 5.74476 22 8C21.956 10.2552 21.3987 12.1448 20.3133 13.6381C19.2133 15.1619 17.8493 15.9543 16.2213 16C15.048 15.9695 14.0067 15.5429 13.0973 14.72C12.188 13.8971 11.484 12.7848 11 11.4286C10.516 12.7848 9.82667 13.8819 8.90267 14.72C7.97867 15.5581 6.93733 15.9848 5.77866 16C4.15066 15.9543 2.78667 15.1619 1.68667 13.6381C0.616002 12.1448 0.044 10.2552 0 8C0.044 5.74476 0.601336 3.85524 1.68667 2.3619C2.78667 0.838095 4.15066 0.0457143 5.77866 0C6.952 0.0304762 7.99333 0.457143 8.90267 1.28C9.812 2.10286 10.516 3.21524 11 4.6019ZM1.1 9.14286C1.12933 9.78286 1.39334 10.2857 1.92134 10.6362C2.47867 10.9257 3.02133 10.9257 3.564 10.6362C4.092 10.2857 4.37067 9.78286 4.38534 9.14286C4.356 8.50286 4.092 8 3.564 7.64952C3.00667 7.36 2.464 7.36 1.92134 7.64952C1.39334 8 1.11467 8.50286 1.1 9.14286ZM10.4573 8C10.4133 5.97333 9.91467 4.32762 8.976 3.03238C8.06667 1.7981 6.996 1.1581 5.77866 1.14286C4.56133 1.14286 3.50533 1.76762 2.58133 3.03238C1.848 4.0381 1.37867 5.28762 1.17333 6.81143C1.628 6.47619 2.156 6.29333 2.75733 6.2781C3.53467 6.30857 4.19467 6.58286 4.72267 7.13143C5.25067 7.68 5.48533 8.32 5.51466 9.12762C5.48533 9.93524 5.22134 10.621 4.72267 11.1695C4.19467 11.6876 3.54934 11.9619 2.75733 11.9924C2.464 11.9924 2.18533 11.9467 1.936 11.8552C2.112 12.2667 2.332 12.6324 2.596 12.9676C3.50533 14.2019 4.576 14.8419 5.79333 14.8571C7.01067 14.8267 8.06667 14.2019 8.99067 12.9676C9.92933 11.6876 10.428 10.0267 10.472 8H10.4573ZM13.2147 7.42095C12.5987 7.45143 12.1147 7.72571 11.7773 8.27429C11.4987 8.85333 11.4987 9.41714 11.7773 9.98095C12.1147 10.5295 12.5987 10.819 13.2147 10.8343C13.8307 10.8038 14.3147 10.5295 14.652 9.98095C14.9307 9.40191 14.9307 8.83809 14.652 8.27429C14.3147 7.72571 13.8307 7.43619 13.2147 7.42095ZM13.0387 12.9524C13.948 14.1867 15.0187 14.8267 16.236 14.8419C17.4533 14.8114 18.5093 14.1867 19.4333 12.9524C20.372 11.6724 20.8707 10.0114 20.9147 7.98476C20.8707 5.9581 20.372 4.31238 19.4333 3.01714C18.524 1.78286 17.4533 1.14286 16.236 1.12762C15.0187 1.12762 13.9627 1.75238 13.0387 3.01714C12.3053 4.02286 11.836 5.27238 11.6307 6.79619C12.0853 6.46095 12.6133 6.2781 13.2147 6.26286C13.992 6.29333 14.652 6.56762 15.18 7.11619C15.708 7.66476 15.9427 8.30476 15.972 9.11238C15.9427 9.92 15.6787 10.6057 15.18 11.1543C14.652 11.6724 14.0067 11.9467 13.2147 11.9771C12.9213 11.9771 12.6427 11.9314 12.3933 11.84C12.5693 12.2514 12.7893 12.6171 13.0533 12.9524H13.0387Z" fill="#5E6A8A"/>
</svg>
